/* XPM */
static char *result[] = {
/* columns rows colors chars-per-pixel */
"16 16 5 1 ",
"  c #3D253B",
". c #70676B",
"X c #8A8486",
"o c #A4A4A4",
"O c None",
/* pixels */
"OOOOOOOOOOOOOOOO",
"OOOOO      OOOOO",
"OOOO XXXXXX OOOO",
"OOOO XooooX OOOO",
"OOOO oooooo OOOO",
"OOOO oooooo OOOO",
"OOOO XooooX OOOO",
"OOOO XXXXXX OOOO",
"OOO o......X OOO",
"OO ooXooooXX OOO",
"OO oXXXooXXX OOO",
"OOO  XXXXXX OOOO",
"OOOO oXX XX OOOO",
"OOOO oo O  OOOOO",
"OOOO oo OOOOOOOO",
"OOOOOOOOOOOOOOOO"
};
