/* XPM */
static char *result[] = {
/* columns rows colors chars-per-pixel */
"16 16 12 1 ",
"  c #472B15",
". c #442227",
"X c #482523",
"o c #562B29",
"O c #6E3734",
"+ c #8F4B3E",
"@ c #9F762D",
"# c #A15A45",
"$ c #A56F50",
"% c #B48833",
"& c #B48366",
"* c #D6BF60",
/* pixels */
"&&&&$$$$$$$$$$OO",
"++++++++++++++++",
"................",
"OXoOOoXOoOXoOoOX",
"+oO###O###O++O+o",
"+oO###+###+#+o+o",
"+oO#+#+###+#+o+o",
"+oO  #+###+#+o+o",
"+o *% +#####+o+X",
"+o @@ O#+####o+X",
"+oO  #O#+#+##o+X",
"+oO#++o#+#O+#o+X",
"+oO#++o#+#O+#o+.",
"+.o++Oo#++oO#X+.",
"O.X+Oo.O+O.oo.O.",
"&$$$$++++++$+++O"
};
