/* XPM */
static char *result[] = {
/* columns rows colors chars-per-pixel */
"16 16 9 1 ",
"  c black",
". c #442227",
"X c #482523",
"o c #562B29",
"O c #6E3734",
"+ c #8F4B3E",
"@ c #A15A45",
"# c #A56F50",
"$ c #B48366",
/* pixels */
"++++++++++++++++",
"................",
"XOX          OoO",
"o+o          +O+",
"o+o          +o+",
"o+o          +o+",
"o+o          +o+",
"X+o          +o+",
"X+o          @o+",
"X+o          @o+",
"X+o          @o+",
".+o          @o+",
".+.          @X+",
".O.          o.O",
"O$####++++++#+++",
"O$$$$##########O"
};
