/* XPM */
static char *result[] = {
/* columns rows colors chars-per-pixel */
"16 16 5 1 ",
"  c #3D253B",
". c #70676B",
"X c #8A8486",
"o c #A4A4A4",
"O c None",
/* pixels */
"OOOOOOOOOOOOOOOO",
"OOOOO      OOOOO",
"OOOO XXXXXX OOOO",
"OOOO XooooX OOOO",
"OOOO oooooo OOOO",
"OOOO o oo o OOOO",
"OOOO oooooo OOOO",
"OOOO .oooo. OOOO",
"OOO oX....XX OOO",
"OOO ooXoooXX OOO",
"OOO oXXoooXX OOO",
"OOO  XXooXX  OOO",
"OOOO XX  Xo OOOO",
"OOOOO  O oo OOOO",
"OOOOOOOO oo OOOO",
"OOOOOOOOOOOOOOOO"
};
