/* XPM */
static char *result[] = {
/* columns rows colors chars-per-pixel */
"16 16 5 1 ",
"  c #3D253B",
". c #70676B",
"X c #8A8486",
"o c #A4A4A4",
"O c None",
/* pixels */
"OOOOOOOOOOOOOOOO",
"OOOOO      OOOOO",
"OOOO XXXXXX OOOO",
"OOOO XooooX OOOO",
"OOOO oooooX OOOO",
"OOOO  oo oX OOOO",
"OOOO oooooX OOOO",
"OOOO .XXXX. OOOO",
"OOOO  ....Xo OOO",
"OOOO XoooXXoo OO",
"OOOO XoooXXXo OO",
"OOOOO ooXXX  OOO",
"OOOOO XXXXo OOOO",
"OOOO XX  ooo OOO",
"OOOO XX O oo OOO",
"OOOOOOOOOOOOOOOO"
};
