/* XPM */
static char *result[] = {
/* columns rows colors chars-per-pixel */
"16 16 5 1 ",
"  c #3D253B",
". c #70676B",
"X c #8A8486",
"o c #A4A4A4",
"O c None",
/* pixels */
"OOOOOOOOOOOOOOOO",
"OOOOOO      OOOO",
"OOOOO XXXXXX OOO",
"OOOOO XooooX OOO",
"OOOOO Xooooo OOO",
"OOOOO Xo oo  OOO",
"OOOOO Xooooo OOO",
"OOOOO .XXXX. OOO",
"OOOO oX....  OOO",
"OOO ooXXoooX OOO",
"OOO oXXXoooX OOO",
"OOOO  XXXoo OOOO",
"OOOOO oXXXX OOOO",
"OOOO ooo  XX OOO",
"OOOO oo O XX OOO",
"OOOOOOOOOOOOOOOO"
};
