/* XPM */
static char *result[] = {
/* columns rows colors chars-per-pixel */
"16 16 17 1 ",
"  c #1E301B",
". c #293728",
"X c #423438",
"o c #414141",
"O c #414947",
"+ c #484A48",
"@ c #4C5553",
"# c #586A59",
"$ c #686560",
"% c #696A6A",
"& c #7B7C7C",
"* c #7E8685",
"= c #89908F",
"- c #8C9392",
"; c #959B9B",
": c #9BADB7",
"> c #A2A7A6",
/* pixels */
">>>>>>$>>>>>>>>$",
";;;;;-@-;;;;;;-@",
";;;;-&@&--;;;-&@",
"&&&&&$@$&&&&&&$@",
"OOOOOOOOOOOOOOOO",
"=%OO%::::=%O%:::",
"**%O*******O****",
"%%%O%%%%%%%O%%%%",
"++o Xooo+oX Xoo+",
" .              ",
" o###++o o###+o ",
".o++++oX.++++oX.",
" XooXXXX ooXXXX ",
"                ",
"oooo XooooX Xooo",
"..XX ...... ...."
};
